<?xml version="1.0" standalone="no"?><!DOCTYPE svg PUBLIC "-//W3C//DTD SVG 1.1//EN" "http://www.w3.org/Graphics/SVG/1.1/DTD/svg11.dtd"><svg t="1588492272827" class="icon" viewBox="0 0 1024 1024" version="1.1" xmlns="http://www.w3.org/2000/svg" p-id="3249" xmlns:xlink="http://www.w3.org/1999/xlink" width="64" height="64"><defs><style type="text/css"></style></defs><path d="M848.941412 0.6396A29.677452 29.677452 0 0 0 819.00812 29.805372L815.170518 307.64772a25.58401 25.58401 0 0 1-51.16802 0l-5.116802-273.748907A33.770893 33.770893 0 0 0 725.114803 0.6396 33.770893 33.770893 0 0 0 691.08807 33.898813L687.250468 307.64772a25.58401 25.58401 0 0 1-51.16802 0l-5.116802-277.842348A29.421611 29.421611 0 0 0 601.544035 0.6396a29.933292 29.933292 0 0 0-29.677452 27.630731l-20.978888 351.524297a76.75203 76.75203 0 0 0 76.75203 81.357152h195.205996a76.75203 76.75203 0 0 0 76.75203-81.357152l-21.234728-351.524297A29.677452 29.677452 0 0 0 848.941412 0.6396z" fill="#AAD6F9" p-id="3250"></path><path d="M848.941412 0.6396A29.677452 29.677452 0 0 0 819.00812 29.805372L815.170518 307.64772a25.58401 25.58401 0 0 1-51.16802 0l-5.116802-273.748907a33.770893 33.770893 0 0 0-67.797626 0L687.250468 307.64772a25.58401 25.58401 0 0 1-51.16802 0l-5.116802-277.842348A29.421611 29.421611 0 0 0 601.544035 0.6396a29.933292 29.933292 0 0 0-29.677452 27.630731l-19.188007 320.823485A76.75203 76.75203 0 0 0 627.639725 409.98376h195.205996a76.75203 76.75203 0 0 0 74.70531-60.889944l-19.188008-320.823485A29.677452 29.677452 0 0 0 848.941412 0.6396z" fill="#B0DFFF" p-id="3251"></path><path d="M725.114803 1024a61.401624 61.401624 0 0 1-61.145784-63.960025l22.769769-550.056215h76.75203l23.025609 550.056215a61.401624 61.401624 0 0 1-61.401624 63.960025z" fill="#AAD6F9" p-id="3252"></path><path d="M597.450593 174.866708c0-17.397127-10.489444-20.978888-12.536165-10.745284A339.499813 339.499813 0 0 0 588.75203 256.4797c0 2.302561 3.837601-5.372642 5.116802-20.467208a460.51218 460.51218 0 0 0 3.581761-61.145784z" fill="#FFFFFF" p-id="3253"></path><path d="M591.566271 137.258214m-9.721924 0a9.721924 9.721924 0 1 0 19.443848 0 9.721924 9.721924 0 1 0-19.443848 0Z" fill="#FFFFFF" p-id="3254"></path><path d="M745.582011 777.881824a303.426359 303.426359 0 0 1 76.75203-52.447221c25.58401-9.466084 45.027858-3.837601 53.726421 16.885447s-6.907683 38.887695-6.140162 60.378264c0 31.980012 10.233604 36.329294 9.210243 57.819862a32.491693 32.491693 0 0 1-43.748657 27.886571 434.92817 434.92817 0 0 1-99.777639-48.865459zM704.647595 777.881824a299.844597 299.844597 0 0 0-76.75203-52.447221c-25.58401-9.466084-45.027858-3.837601-53.726421 16.885447s6.907683 38.887695 6.140163 60.378264c-1.2792 31.980012-10.233604 36.329294-9.210244 57.819862A32.235853 32.235853 0 0 0 614.33604 888.404747a434.92817 434.92817 0 0 0 99.777639-48.865459z" fill="#F0A0F2" p-id="3255"></path><path d="M699.274953 778.137664c4.093442-11.001124 31.724172-13.303685 42.725297-6.651843s6.140162 25.58401 7.419363 37.096815 6.651843 21.490568 0 31.980012a39.399375 39.399375 0 0 1-46.307058 6.140163c-9.977764-6.140162-5.116802-25.58401-4.093442-41.957777 1.2792-8.698563-3.325921-16.629606 0.25584-26.60737z" fill="#F6DAF7" p-id="3256"></path><path d="M285.581512 0.6396a153.50406 153.50406 0 0 1 153.50406 153.50406v281.42411a153.50406 153.50406 0 0 1-153.50406 153.50406h-51.16802V51.80762a51.16802 51.16802 0 0 1 51.16802-51.16802z" fill="#AAD6F9" p-id="3257"></path><path d="M234.413492 51.80762v511.6802a153.50406 153.50406 0 0 0 153.50406-153.50406V128.55965A153.50406 153.50406 0 0 0 327.283448 6.523923 149.410618 149.410618 0 0 0 285.581512 0.6396a51.16802 51.16802 0 0 0-51.16802 51.16802z" fill="#B0DFFF" p-id="3258"></path><path d="M285.581512 1024a51.16802 51.16802 0 0 1-51.16802-51.16802V563.48782h76.75203l31.468332 398.854716A57.308182 57.308182 0 0 1 285.581512 1024z" fill="#AAD6F9" p-id="3259"></path><path d="M298.373517 777.881824a303.426359 303.426359 0 0 1 76.75203-52.447221c25.58401-9.466084 45.027858-3.837601 53.726421 16.885447s-6.907683 38.887695-6.140163 60.378264c0 31.980012 10.233604 36.329294 9.210244 57.819862a32.491693 32.491693 0 0 1-43.748657 27.886571 434.92817 434.92817 0 0 1-99.777639-48.865459zM257.439101 777.881824a299.844597 299.844597 0 0 0-76.75203-52.447221c-25.58401-9.466084-45.027858-3.837601-53.726421 16.885447s6.907683 38.887695 6.140162 60.378264c0 31.980012-10.233604 36.329294-9.210244 57.819862a32.235853 32.235853 0 0 0 43.492817 27.886571 434.92817 434.92817 0 0 0 99.777639-48.865459z" fill="#F0A0F2" p-id="3260"></path><path d="M252.066458 778.137664c4.093442-11.001124 31.724172-13.303685 42.725297-6.651843s6.140162 25.58401 7.419363 37.096815 6.651843 21.490568 0 31.980012a39.399375 39.399375 0 0 1-46.307058 6.140163c-9.977764-6.140162-5.116802-25.58401-3.837602-41.957777 1.02336-8.698563-3.581761-16.629606 0-26.60737z" fill="#F6DAF7" p-id="3261"></path><path d="M281.74391 101.4406c0-22.769769-14.071205-27.630731-16.885447-13.815366a465.628982 465.628982 0 0 0 5.372643 123.570768c1.535041 3.325921 5.372642-7.163523 7.163522-27.11905A608.131918 608.131918 0 0 0 281.74391 101.4406z" fill="#FFFFFF" p-id="3262"></path><path d="M272.533666 51.55178m-12.792005 0a12.792005 12.792005 0 1 0 25.58401 0 12.792005 12.792005 0 1 0-25.58401 0Z" fill="#FFFFFF" p-id="3263"></path></svg>